<mxfile host="app.diagrams.net" modified="2023-05-27T16:02:05.414Z" agent="Mozilla/5.0 (Windows NT 10.0; Win64; x64) AppleWebKit/537.36 (KHTML, like Gecko) Chrome/113.0.0.0 Safari/537.36" etag="fJebaBA-m8qkn_MhoeC5" version="21.3.4" type="google">
  <diagram name="PÃ¡gina-1" id="WjWoJh0IlQGyVS5Amr6f">
    <mxGraphModel grid="1" page="1" gridSize="10" guides="1" tooltips="1" connect="1" arrows="1" fold="1" pageScale="1" pageWidth="827" pageHeight="1169" math="0" shadow="0">
      <root>
        <mxCell id="0" />
        <mxCell id="1" parent="0" />
        <mxCell id="NgDSqdn8-H3LufxqJg7n-30" style="edgeStyle=orthogonalEdgeStyle;rounded=0;orthogonalLoop=1;jettySize=auto;html=1;exitX=0;exitY=0.5;exitDx=0;exitDy=0;entryX=0;entryY=0.5;entryDx=0;entryDy=0;" edge="1" parent="1" target="NgDSqdn8-H3LufxqJg7n-15">
          <mxGeometry relative="1" as="geometry">
            <mxPoint x="323" y="130" as="sourcePoint" />
            <Array as="points">
              <mxPoint x="324" y="200" />
              <mxPoint x="102" y="200" />
              <mxPoint x="102" y="540" />
            </Array>
          </mxGeometry>
        </mxCell>
        <mxCell id="NgDSqdn8-H3LufxqJg7n-31" style="edgeStyle=orthogonalEdgeStyle;rounded=0;orthogonalLoop=1;jettySize=auto;html=1;exitX=1;exitY=0.5;exitDx=0;exitDy=0;entryX=1;entryY=0.5;entryDx=0;entryDy=0;" edge="1" parent="1" target="NgDSqdn8-H3LufxqJg7n-17">
          <mxGeometry relative="1" as="geometry">
            <mxPoint x="483" y="130" as="sourcePoint" />
            <Array as="points">
              <mxPoint x="484" y="200" />
              <mxPoint x="745" y="200" />
              <mxPoint x="745" y="545" />
            </Array>
          </mxGeometry>
        </mxCell>
        <mxCell id="NgDSqdn8-H3LufxqJg7n-4" value="" style="shape=process;whiteSpace=wrap;html=1;backgroundOutline=1;glass=0;shadow=0;rounded=1;" vertex="1" parent="1">
          <mxGeometry x="323" y="90" width="160" height="80" as="geometry" />
        </mxCell>
        <mxCell id="NgDSqdn8-H3LufxqJg7n-3" value="&lt;h1&gt;Logic&lt;/h1&gt;" style="text;html=1;strokeColor=none;fillColor=none;spacing=5;spacingTop=-20;whiteSpace=wrap;overflow=hidden;rounded=0;align=center;" vertex="1" parent="1">
          <mxGeometry x="363" y="105" width="100" height="50" as="geometry" />
        </mxCell>
        <mxCell id="NgDSqdn8-H3LufxqJg7n-5" value="" style="shape=process;whiteSpace=wrap;html=1;backgroundOutline=1;glass=0;shadow=0;rounded=1;" vertex="1" parent="1">
          <mxGeometry x="323" y="230" width="160" height="80" as="geometry" />
        </mxCell>
        <mxCell id="NgDSqdn8-H3LufxqJg7n-7" value="&lt;h1&gt;Engine&lt;/h1&gt;" style="text;html=1;strokeColor=none;fillColor=none;spacing=5;spacingTop=-20;whiteSpace=wrap;overflow=hidden;rounded=0;align=center;" vertex="1" parent="1">
          <mxGeometry x="363" y="245" width="100" height="50" as="geometry" />
        </mxCell>
        <mxCell id="NgDSqdn8-H3LufxqJg7n-8" value="" style="shape=process;whiteSpace=wrap;html=1;backgroundOutline=1;glass=0;shadow=0;rounded=1;" vertex="1" parent="1">
          <mxGeometry x="129" y="360" width="240" height="80" as="geometry" />
        </mxCell>
        <mxCell id="NgDSqdn8-H3LufxqJg7n-9" value="" style="shape=process;whiteSpace=wrap;html=1;backgroundOutline=1;glass=0;shadow=0;rounded=1;" vertex="1" parent="1">
          <mxGeometry x="457" y="360" width="266" height="80" as="geometry" />
        </mxCell>
        <mxCell id="NgDSqdn8-H3LufxqJg7n-10" value="" style="endArrow=classic;html=1;rounded=0;entryX=0.5;entryY=0;entryDx=0;entryDy=0;exitX=0.5;exitY=1;exitDx=0;exitDy=0;" edge="1" parent="1" source="NgDSqdn8-H3LufxqJg7n-5" target="NgDSqdn8-H3LufxqJg7n-9">
          <mxGeometry width="50" height="50" relative="1" as="geometry">
            <mxPoint x="423" y="240" as="sourcePoint" />
            <mxPoint x="423" y="180" as="targetPoint" />
          </mxGeometry>
        </mxCell>
        <mxCell id="NgDSqdn8-H3LufxqJg7n-11" value="" style="endArrow=classic;html=1;rounded=0;entryX=0.5;entryY=0;entryDx=0;entryDy=0;exitX=0.5;exitY=1;exitDx=0;exitDy=0;" edge="1" parent="1" source="NgDSqdn8-H3LufxqJg7n-5" target="NgDSqdn8-H3LufxqJg7n-8">
          <mxGeometry width="50" height="50" relative="1" as="geometry">
            <mxPoint x="423" y="320" as="sourcePoint" />
            <mxPoint x="547" y="370" as="targetPoint" />
          </mxGeometry>
        </mxCell>
        <mxCell id="NgDSqdn8-H3LufxqJg7n-12" value="&lt;h1&gt;AndroidEngine&lt;/h1&gt;" style="text;html=1;strokeColor=none;fillColor=none;spacing=5;spacingTop=-20;whiteSpace=wrap;overflow=hidden;rounded=0;align=center;" vertex="1" parent="1">
          <mxGeometry x="148" y="377" width="190" height="60" as="geometry" />
        </mxCell>
        <mxCell id="NgDSqdn8-H3LufxqJg7n-13" value="&lt;h1&gt;PCEngine&lt;/h1&gt;" style="text;html=1;strokeColor=none;fillColor=none;spacing=5;spacingTop=-20;whiteSpace=wrap;overflow=hidden;rounded=0;align=center;" vertex="1" parent="1">
          <mxGeometry x="500" y="375" width="180" height="45" as="geometry" />
        </mxCell>
        <mxCell id="NgDSqdn8-H3LufxqJg7n-14" value="" style="shape=flexArrow;endArrow=classic;html=1;rounded=0;entryX=0.5;entryY=1;entryDx=0;entryDy=0;exitX=0.5;exitY=0;exitDx=0;exitDy=0;" edge="1" parent="1" source="NgDSqdn8-H3LufxqJg7n-5">
          <mxGeometry width="50" height="50" relative="1" as="geometry">
            <mxPoint x="433" y="340" as="sourcePoint" />
            <mxPoint x="403" y="170" as="targetPoint" />
          </mxGeometry>
        </mxCell>
        <mxCell id="NgDSqdn8-H3LufxqJg7n-15" value="" style="shape=process;whiteSpace=wrap;html=1;backgroundOutline=1;glass=0;shadow=0;rounded=1;" vertex="1" parent="1">
          <mxGeometry x="122" y="500" width="240" height="80" as="geometry" />
        </mxCell>
        <mxCell id="NgDSqdn8-H3LufxqJg7n-17" value="" style="shape=process;whiteSpace=wrap;html=1;backgroundOutline=1;glass=0;shadow=0;rounded=1;" vertex="1" parent="1">
          <mxGeometry x="455" y="505" width="270" height="80" as="geometry" />
        </mxCell>
        <mxCell id="NgDSqdn8-H3LufxqJg7n-18" value="&lt;h1&gt;App&lt;/h1&gt;" style="text;html=1;strokeColor=none;fillColor=none;spacing=5;spacingTop=-20;whiteSpace=wrap;overflow=hidden;rounded=0;align=center;" vertex="1" parent="1">
          <mxGeometry x="143" y="515" width="190" height="60" as="geometry" />
        </mxCell>
        <mxCell id="NgDSqdn8-H3LufxqJg7n-19" value="&lt;h1&gt;PCLauncher&lt;/h1&gt;" style="text;html=1;strokeColor=none;fillColor=none;spacing=5;spacingTop=-20;whiteSpace=wrap;overflow=hidden;rounded=0;align=center;" vertex="1" parent="1">
          <mxGeometry x="500" y="522.5" width="180" height="45" as="geometry" />
        </mxCell>
        <mxCell id="NgDSqdn8-H3LufxqJg7n-21" value="" style="shape=flexArrow;endArrow=classic;html=1;rounded=0;entryX=0.5;entryY=0;entryDx=0;entryDy=0;exitX=0.5;exitY=1;exitDx=0;exitDy=0;" edge="1" parent="1" source="NgDSqdn8-H3LufxqJg7n-9" target="NgDSqdn8-H3LufxqJg7n-17">
          <mxGeometry width="50" height="50" relative="1" as="geometry">
            <mxPoint x="473" y="480" as="sourcePoint" />
            <mxPoint x="523" y="430" as="targetPoint" />
          </mxGeometry>
        </mxCell>
        <mxCell id="NgDSqdn8-H3LufxqJg7n-22" value="" style="shape=flexArrow;endArrow=classic;html=1;rounded=0;entryX=0.5;entryY=0;entryDx=0;entryDy=0;exitX=0.5;exitY=1;exitDx=0;exitDy=0;" edge="1" parent="1" source="NgDSqdn8-H3LufxqJg7n-12" target="NgDSqdn8-H3LufxqJg7n-15">
          <mxGeometry width="50" height="50" relative="1" as="geometry">
            <mxPoint x="473" y="480" as="sourcePoint" />
            <mxPoint x="523" y="430" as="targetPoint" />
          </mxGeometry>
        </mxCell>
        <mxCell id="NgDSqdn8-H3LufxqJg7n-24" value="uses" style="text;html=1;strokeColor=none;fillColor=none;align=center;verticalAlign=middle;whiteSpace=wrap;rounded=0;" vertex="1" parent="1">
          <mxGeometry x="400" y="191" width="60" height="30" as="geometry" />
        </mxCell>
        <mxCell id="NgDSqdn8-H3LufxqJg7n-25" value="implements" style="text;html=1;strokeColor=none;fillColor=none;align=center;verticalAlign=middle;whiteSpace=wrap;rounded=0;" vertex="1" parent="1">
          <mxGeometry x="353" y="320" width="110" height="30" as="geometry" />
        </mxCell>
        <mxCell id="NgDSqdn8-H3LufxqJg7n-27" value="uses" style="text;html=1;strokeColor=none;fillColor=none;align=center;verticalAlign=middle;whiteSpace=wrap;rounded=0;" vertex="1" parent="1">
          <mxGeometry x="263" y="450" width="60" height="30" as="geometry" />
        </mxCell>
        <mxCell id="NgDSqdn8-H3LufxqJg7n-28" value="uses" style="text;html=1;strokeColor=none;fillColor=none;align=center;verticalAlign=middle;whiteSpace=wrap;rounded=0;" vertex="1" parent="1">
          <mxGeometry x="620" y="450" width="60" height="30" as="geometry" />
        </mxCell>
        <mxCell id="NgDSqdn8-H3LufxqJg7n-32" value="uses" style="text;html=1;strokeColor=none;fillColor=none;align=center;verticalAlign=middle;whiteSpace=wrap;rounded=0;" vertex="1" parent="1">
          <mxGeometry x="743" y="155" width="60" height="30" as="geometry" />
        </mxCell>
        <mxCell id="NgDSqdn8-H3LufxqJg7n-33" value="uses" style="text;html=1;strokeColor=none;fillColor=none;align=center;verticalAlign=middle;whiteSpace=wrap;rounded=0;" vertex="1" parent="1">
          <mxGeometry x="23" y="160" width="60" height="30" as="geometry" />
        </mxCell>
      </root>
    </mxGraphModel>
  </diagram>
</mxfile>
